<svg version="1.1" xmlns="http://www.w3.org/2000/svg" xmlns:xlink="http://www.w3.org/1999/xlink" width="1415" height="907"><defs/><g><g transform="translate(10,-6) scale(1,1)"><path fill="#C0C0C0" stroke="none" d="M 559 62.5 C 559 40.6847504 598.3989376 23 647 23 C 695.6010624 23 735 40.6847504 735 62.5 C 735 84.3152496 695.6010624 102 647 102 C 598.3989376 102 559 84.3152496 559 62.5 Z" opacity="0.2"/></g><g transform="translate(10,-6) scale(1,1)"><path fill="#fa0303" stroke="none" d="M 552 55.5 C 552 33.6847504 591.3989376 16 640 16 C 688.6010624 16 728 33.6847504 728 55.5 C 728 77.3152496 688.6010624 95 640 95 C 591.3989376 95 552 77.3152496 552 55.5 Z"/></g><g transform="translate(10,-6) scale(1,1)"><path fill="none" stroke="#000000" d="M 552 55.5 C 552 33.6847504 591.3989376 16 640 16 C 688.6010624 16 728 33.6847504 728 55.5 C 728 77.3152496 688.6010624 95 640 95 C 591.3989376 95 552 77.3152496 552 55.5 Z" stroke-miterlimit="10"/></g><g transform="translate(10,-6) scale(1,1)"><g><path fill="none" stroke="none"/><text fill="#000000" stroke="none" font-family="Arial" font-size="13px" font-style="normal" font-weight="bold" text-decoration="none" x="586.885986328125" y="62.5">View All donations</text></g></g><g transform="translate(10,-6) scale(1,1)"><path fill="#fa0303" stroke="none" d="M 82.01667311789772 27.89 C 82.01667311789772 21.875618528 86.83799600255227 17 92.785400390625 17 C 98.73280477869773 17 103.55412766335228 21.875618528 103.55412766335228 27.89 C 103.55412766335228 33.904381472 98.73280477869773 38.78 92.785400390625 38.78 C 86.83799600255227 38.78 82.01667311789772 33.904381472 82.01667311789772 27.89 Z"/></g><g transform="translate(10,-6) scale(1,1)"><path fill="none" stroke="#df0404" d="M 82.01667311789772 27.89 C 82.01667311789772 21.875618528 86.83799600255227 17 92.785400390625 17 C 98.73280477869773 17 103.55412766335228 21.875618528 103.55412766335228 27.89 C 103.55412766335228 33.904381472 98.73280477869773 38.78 92.785400390625 38.78 C 86.83799600255227 38.78 82.01667311789772 33.904381472 82.01667311789772 27.89 Z" stroke-miterlimit="10"/></g><g transform="translate(10,-6) scale(1,1)"><path fill="none" stroke="#df0404" d="M 92.785400390625 38.78 L 92.785400390625 60.22" stroke-miterlimit="10"/></g><g transform="translate(10,-6) scale(1,1)"><path fill="none" stroke="#df0404" d="M 81.38321857244318 46.82 L 104.18758220880682 46.82" stroke-miterlimit="10"/></g><g transform="translate(10,-6) scale(1,1)"><path fill="none" stroke="#df0404" d="M 92.785400390625 60.22 L 76.94903675426136 82" stroke-miterlimit="10"/></g><g transform="translate(10,-6) scale(1,1)"><path fill="none" stroke="#df0404" d="M 92.785400390625 60.22 L 108.62176402698864 82" stroke-miterlimit="10"/></g><g transform="translate(10,-6) scale(1,1)"><path fill="none" stroke="#df0404" d="M 48 108 L 137.57080078125 108" stroke-miterlimit="10"/></g><g transform="translate(10,-6) scale(1,1)"><path fill="none" stroke="#df0404" d="M 48 118 L 137.57080078125 118" stroke-miterlimit="10"/></g><g transform="translate(10,-6) scale(1,1)"><g><path fill="none" stroke="none"/><text fill="#000000" stroke="none" font-family="Arial" font-size="13px" font-style="normal" font-weight="bold" text-decoration="none" x="79.417236328125" y="102.5">Staff</text></g></g><g transform="translate(10,-6) scale(1,1)"><path fill="#00d600" stroke="none" d="M 67.74836363636364 773.9200000000001 C 67.74836363636364 762.3662019840001 76.81532906123635 753 88 753 C 99.18467093876365 753 108.25163636363636 762.3662019840001 108.25163636363636 773.9200000000001 C 108.25163636363636 785.473798016 99.18467093876365 794.84 88 794.84 C 76.81532906123635 794.84 67.74836363636364 785.473798016 67.74836363636364 773.9200000000001 Z"/></g><g transform="translate(10,-6) scale(1,1)"><path fill="none" stroke="#003700" d="M 67.74836363636364 773.9200000000001 C 67.74836363636364 762.3662019840001 76.81532906123635 753 88 753 C 99.18467093876365 753 108.25163636363636 762.3662019840001 108.25163636363636 773.9200000000001 C 108.25163636363636 785.473798016 99.18467093876365 794.84 88 794.84 C 76.81532906123635 794.84 67.74836363636364 785.473798016 67.74836363636364 773.9200000000001 Z" stroke-miterlimit="10"/></g><g transform="translate(10,-6) scale(1,1)"><path fill="none" stroke="#003700" d="M 88 794.84 L 88 835.16" stroke-miterlimit="10"/></g><g transform="translate(10,-6) scale(1,1)"><path fill="none" stroke="#003700" d="M 66.5570909090909 809.96 L 109.4429090909091 809.96" stroke-miterlimit="10"/></g><g transform="translate(10,-6) scale(1,1)"><path fill="none" stroke="#003700" d="M 88 835.16 L 58.21818181818182 877" stroke-miterlimit="10"/></g><g transform="translate(10,-6) scale(1,1)"><path fill="none" stroke="#003700" d="M 88 835.16 L 117.78181818181818 877" stroke-miterlimit="10"/></g><g transform="translate(10,-6) scale(1,1)"><g><path fill="none" stroke="none"/><text fill="#000000" stroke="none" font-family="Arial" font-size="13px" font-style="normal" font-weight="bold" text-decoration="none" x="68.85546875" y="897.5">Doctor</text></g></g><g transform="translate(10,-6) scale(1,1)"><path fill="#C0C0C0" stroke="none" d="M 535 198.5 C 535 181.1030288 574.3989376 167 623 167 C 671.6010624 167 711 181.1030288 711 198.5 C 711 215.8969712 671.6010624 230 623 230 C 574.3989376 230 535 215.8969712 535 198.5 Z" opacity="0.2"/></g><g transform="translate(10,-6) scale(1,1)"><path fill="#fa0303" stroke="none" d="M 528 191.5 C 528 174.1030288 567.3989376 160 616 160 C 664.6010624 160 704 174.1030288 704 191.5 C 704 208.8969712 664.6010624 223 616 223 C 567.3989376 223 528 208.8969712 528 191.5 Z"/></g><g transform="translate(10,-6) scale(1,1)"><path fill="none" stroke="#000000" d="M 528 191.5 C 528 174.1030288 567.3989376 160 616 160 C 664.6010624 160 704 174.1030288 704 191.5 C 704 208.8969712 664.6010624 223 616 223 C 567.3989376 223 528 208.8969712 528 191.5 Z" stroke-miterlimit="10"/></g><g transform="translate(10,-6) scale(1,1)"><g><path fill="none" stroke="none"/><text fill="#000000" stroke="none" font-family="Arial" font-size="13px" font-style="normal" font-weight="bold" text-decoration="none" x="561.435546875" y="198.5">Manage Donations</text></g></g><g transform="translate(10,-6) scale(1,1)"><path fill="#C0C0C0" stroke="none" d="M 775 175 C 775 157.3268864 846.4105744 143 934.5 143 C 1022.5894256 143 1094 157.3268864 1094 175 C 1094 192.6731136 1022.5894256 207 934.5 207 C 846.4105744 207 775 192.6731136 775 175 Z" opacity="0.2"/></g><g transform="translate(10,-6) scale(1,1)"><path fill="#ffff00" stroke="none" d="M 768 168 C 768 150.3268864 839.4105744 136 927.5 136 C 1015.5894256 136 1087 150.3268864 1087 168 C 1087 185.6731136 1015.5894256 200 927.5 200 C 839.4105744 200 768 185.6731136 768 168 Z"/></g><g transform="translate(10,-6) scale(1,1)"><path fill="none" stroke="#000000" d="M 768 168 C 768 150.3268864 839.4105744 136 927.5 136 C 1015.5894256 136 1087 150.3268864 1087 168 C 1087 185.6731136 1015.5894256 200 927.5 200 C 839.4105744 200 768 185.6731136 768 168 Z" stroke-miterlimit="10"/></g><g transform="translate(10,-6) scale(1,1)"><g><path fill="none" stroke="none"/><text fill="#000000" stroke="none" font-family="Arial" font-size="13px" font-style="normal" font-weight="bold" text-decoration="none" x="827.41015625" y="175">Donor sees his personal donations</text></g></g><g transform="translate(10,-6) scale(1,1)"><path fill="#ffff00" stroke="none" d="M 1256.4093503196023 169.68 C 1256.4093503196023 164.886167936 1260.2951926445478 161 1265.088623046875 161 C 1269.8820534492022 161 1273.7678957741477 164.886167936 1273.7678957741477 169.68 C 1273.7678957741477 174.47383206400002 1269.8820534492022 178.36 1265.088623046875 178.36 C 1260.2951926445478 178.36 1256.4093503196023 174.47383206400002 1256.4093503196023 169.68 Z"/></g><g transform="translate(10,-6) scale(1,1)"><path fill="none" stroke="#969600" d="M 1256.4093503196023 169.68 C 1256.4093503196023 164.886167936 1260.2951926445478 161 1265.088623046875 161 C 1269.8820534492022 161 1273.7678957741477 164.886167936 1273.7678957741477 169.68 C 1273.7678957741477 174.47383206400002 1269.8820534492022 178.36 1265.088623046875 178.36 C 1260.2951926445478 178.36 1256.4093503196023 174.47383206400002 1256.4093503196023 169.68 Z" stroke-miterlimit="10"/></g><g transform="translate(10,-6) scale(1,1)"><path fill="none" stroke="#969600" d="M 1265.088623046875 178.36 L 1265.088623046875 195.64" stroke-miterlimit="10"/></g><g transform="translate(10,-6) scale(1,1)"><path fill="none" stroke="#969600" d="M 1255.8988048650567 184.84 L 1274.2784412286933 184.84" stroke-miterlimit="10"/></g><g transform="translate(10,-6) scale(1,1)"><path fill="none" stroke="#969600" d="M 1265.088623046875 195.64 L 1252.3249866832386 213" stroke-miterlimit="10"/></g><g transform="translate(10,-6) scale(1,1)"><path fill="none" stroke="#969600" d="M 1265.088623046875 195.64 L 1277.8522594105114 213" stroke-miterlimit="10"/></g><g transform="translate(10,-6) scale(1,1)"><g><path fill="none" stroke="none"/><text fill="#000000" stroke="none" font-family="Arial" font-size="13px" font-style="normal" font-weight="bold" text-decoration="none" x="1247.385009765625" y="233.5">Donor</text></g></g><g transform="translate(10,-6) scale(1,1)"><path fill="#C0C0C0" stroke="none" d="M 695 392 C 695 382.6111584 724.9969184 375 762 375 C 799.0030816 375 829 382.6111584 829 392 C 829 401.3888416 799.0030816 409 762 409 C 724.9969184 409 695 401.3888416 695 392 Z" opacity="0.2"/></g><g transform="translate(10,-6) scale(1,1)"><path fill="#fa0303" stroke="none" d="M 688 385 C 688 375.6111584 717.9969184 368 755 368 C 792.0030816 368 822 375.6111584 822 385 C 822 394.3888416 792.0030816 402 755 402 C 717.9969184 402 688 394.3888416 688 385 Z"/></g><g transform="translate(10,-6) scale(1,1)"><path fill="none" stroke="#000000" d="M 688 385 C 688 375.6111584 717.9969184 368 755 368 C 792.0030816 368 822 375.6111584 822 385 C 822 394.3888416 792.0030816 402 755 402 C 717.9969184 402 688 394.3888416 688 385 Z" stroke-miterlimit="10"/></g><g transform="translate(10,-6) scale(1,1)"><g><path fill="none" stroke="none"/><text fill="#000000" stroke="none" font-family="Arial" font-size="13px" font-style="normal" font-weight="bold" text-decoration="none" x="715.62548828125" y="392">Notify Donors</text></g></g><g transform="translate(10,-6) scale(1,1)"><path fill="#C0C0C0" stroke="none" d="M 279 464 C 279 454.6111584 312.8024976 447 354.5 447 C 396.1975024 447 430 454.6111584 430 464 C 430 473.3888416 396.1975024 481 354.5 481 C 312.8024976 481 279 473.3888416 279 464 Z" opacity="0.2"/></g><g transform="translate(10,-6) scale(1,1)"><path fill="#fa0303" stroke="none" d="M 272 457 C 272 447.6111584 305.8024976 440 347.5 440 C 389.1975024 440 423 447.6111584 423 457 C 423 466.3888416 389.1975024 474 347.5 474 C 305.8024976 474 272 466.3888416 272 457 Z"/></g><g transform="translate(10,-6) scale(1,1)"><path fill="none" stroke="#000000" d="M 272 457 C 272 447.6111584 305.8024976 440 347.5 440 C 389.1975024 440 423 447.6111584 423 457 C 423 466.3888416 389.1975024 474 347.5 474 C 305.8024976 474 272 466.3888416 272 457 Z" stroke-miterlimit="10"/></g><g transform="translate(10,-6) scale(1,1)"><g><path fill="none" stroke="none"/><text fill="#000000" stroke="none" font-family="Arial" font-size="13px" font-style="normal" font-weight="bold" text-decoration="none" x="303.06005859375" y="464">Blood Analysys</text></g></g><g transform="translate(10,-6) scale(1,1)"><path fill="#C0C0C0" stroke="none" d="M 7 472 C 7 462.6111584 41.2502128 455 83.5 455 C 125.7497872 455 160 462.6111584 160 472 C 160 481.3888416 125.7497872 489 83.5 489 C 41.2502128 489 7 481.3888416 7 472 Z" opacity="0.2"/></g><g transform="translate(10,-6) scale(1,1)"><path fill="#fa0303" stroke="none" d="M 0 465 C 0 455.6111584 34.2502128 448 76.5 448 C 118.7497872 448 153 455.6111584 153 465 C 153 474.3888416 118.7497872 482 76.5 482 C 34.2502128 482 0 474.3888416 0 465 Z"/></g><g transform="translate(10,-6) scale(1,1)"><path fill="none" stroke="#000000" d="M 0 465 C 0 455.6111584 34.2502128 448 76.5 448 C 118.7497872 448 153 455.6111584 153 465 C 153 474.3888416 118.7497872 482 76.5 482 C 34.2502128 482 0 474.3888416 0 465 Z" stroke-miterlimit="10"/></g><g transform="translate(10,-6) scale(1,1)"><g><path fill="none" stroke="none"/><text fill="#000000" stroke="none" font-family="Arial" font-size="13px" font-style="normal" font-weight="bold" text-decoration="none" x="30.2509765625" y="472">Reject Donation</text></g></g><g transform="translate(10,-6) scale(1,1)"><path fill="none" stroke="#000000" d="M 154 463 L 271 459" stroke-miterlimit="10" stroke-dasharray="3"/></g><g transform="translate(10,-6) scale(1,1)"><path fill="none" stroke="#000000" d="M 260.98709022346907 463.55429882715777 L 271 459 L 260.69942801337265 455.1401791818391" stroke-miterlimit="10"/></g><g transform="translate(10,-6) scale(1,1)"><g><path fill="none" stroke="none"/><text fill="#000000" stroke="none" font-family="Arial" font-size="13px" font-style="normal" font-weight="normal" text-decoration="none" x="183.5" y="437.5">«extend»</text></g></g><g transform="translate(10,-6) scale(1,1)"><path fill="#C0C0C0" stroke="none" d="M 431 567 C 431 540.4903296 514.9466 519 618.5 519 C 722.0534 519 806 540.4903296 806 567 C 806 593.5096704 722.0534 615 618.5 615 C 514.9466 615 431 593.5096704 431 567 Z" opacity="0.2"/></g><g transform="translate(10,-6) scale(1,1)"><path fill="#fa0303" stroke="none" d="M 424 560 C 424 533.4903296 507.9466 512 611.5 512 C 715.0534 512 799 533.4903296 799 560 C 799 586.5096704 715.0534 608 611.5 608 C 507.9466 608 424 586.5096704 424 560 Z"/></g><g transform="translate(10,-6) scale(1,1)"><path fill="none" stroke="#000000" d="M 424 560 C 424 533.4903296 507.9466 512 611.5 512 C 715.0534 512 799 533.4903296 799 560 C 799 586.5096704 715.0534 608 611.5 608 C 507.9466 608 424 586.5096704 424 560 Z" stroke-miterlimit="10"/></g><g transform="translate(10,-6) scale(1,1)"><g><path fill="none" stroke="none"/><text fill="#000000" stroke="none" font-family="Arial" font-size="13px" font-style="normal" font-weight="bold" text-decoration="none" x="492.636962890625" y="567">View All requests made by all the doctors</text></g></g><g transform="translate(10,-6) scale(1,1)"><path fill="#C0C0C0" stroke="none" d="M 429 720 C 429 710.6111584 451.6096176 703 479.5 703 C 507.3903824 703 530 710.6111584 530 720 C 530 729.3888416 507.3903824 737 479.5 737 C 451.6096176 737 429 729.3888416 429 720 Z" opacity="0.2"/></g><g transform="translate(10,-6) scale(1,1)"><path fill="#00d600" stroke="none" d="M 422 713 C 422 703.6111584 444.6096176 696 472.5 696 C 500.3903824 696 523 703.6111584 523 713 C 523 722.3888416 500.3903824 730 472.5 730 C 444.6096176 730 422 722.3888416 422 713 Z"/></g><g transform="translate(10,-6) scale(1,1)"><path fill="none" stroke="#000000" d="M 422 713 C 422 703.6111584 444.6096176 696 472.5 696 C 500.3903824 696 523 703.6111584 523 713 C 523 722.3888416 500.3903824 730 472.5 730 C 444.6096176 730 422 722.3888416 422 713 Z" stroke-miterlimit="10"/></g><g transform="translate(10,-6) scale(1,1)"><g><path fill="none" stroke="none"/><text fill="#000000" stroke="none" font-family="Arial" font-size="13px" font-style="normal" font-weight="bold" text-decoration="none" x="454.075927734375" y="720">Profile</text></g></g><g transform="translate(10,-6) scale(1,1)"><path fill="none" stroke="#000000" d="M 145 810 L 421 728" stroke-miterlimit="10"/></g><g transform="translate(10,-6) scale(1,1)"><path fill="#C0C0C0" stroke="none" d="M 327 267 C 327 242.6994688 354.9822 223 389.5 223 C 424.0178 223 452 242.6994688 452 267 C 452 291.3005312 424.0178 311 389.5 311 C 354.9822 311 327 291.3005312 327 267 Z" opacity="0.2"/></g><g transform="translate(10,-6) scale(1,1)"><path fill="#fa0303" stroke="none" d="M 320 260 C 320 235.6994688 347.9822 216 382.5 216 C 417.0178 216 445 235.6994688 445 260 C 445 284.3005312 417.0178 304 382.5 304 C 347.9822 304 320 284.3005312 320 260 Z"/></g><g transform="translate(10,-6) scale(1,1)"><path fill="none" stroke="#000000" d="M 320 260 C 320 235.6994688 347.9822 216 382.5 216 C 417.0178 216 445 235.6994688 445 260 C 445 284.3005312 417.0178 304 382.5 304 C 347.9822 304 320 284.3005312 320 260 Z" stroke-miterlimit="10"/></g><g transform="translate(10,-6) scale(1,1)"><g><path fill="none" stroke="none"/><text fill="#000000" stroke="none" font-family="Arial" font-size="13px" font-style="normal" font-weight="bold" text-decoration="none" x="364.075927734375" y="267">Profile</text></g></g><g transform="translate(10,-6) scale(1,1)"><path fill="none" stroke="#000000" d="M 139 102 L 319 219" stroke-miterlimit="10"/></g><g transform="translate(10,-6) scale(1,1)"><path fill="#C0C0C0" stroke="none" d="M 623 720 C 623 710.6111584 678.2928272 703 746.5 703 C 814.7071728 703 870 710.6111584 870 720 C 870 729.3888416 814.7071728 737 746.5 737 C 678.2928272 737 623 729.3888416 623 720 Z" opacity="0.2"/></g><g transform="translate(10,-6) scale(1,1)"><path fill="#00d600" stroke="none" d="M 616 713 C 616 703.6111584 671.2928272 696 739.5 696 C 807.7071728 696 863 703.6111584 863 713 C 863 722.3888416 807.7071728 730 739.5 730 C 671.2928272 730 616 722.3888416 616 713 Z"/></g><g transform="translate(10,-6) scale(1,1)"><path fill="none" stroke="#000000" d="M 616 713 C 616 703.6111584 671.2928272 696 739.5 696 C 807.7071728 696 863 703.6111584 863 713 C 863 722.3888416 807.7071728 730 739.5 730 C 671.2928272 730 616 722.3888416 616 713 Z" stroke-miterlimit="10"/></g><g transform="translate(10,-6) scale(1,1)"><g><path fill="none" stroke="none"/><text fill="#000000" stroke="none" font-family="Arial" font-size="13px" font-style="normal" font-weight="bold" text-decoration="none" x="662.906005859375" y="720">View All personal requests</text></g></g><g transform="translate(10,-6) scale(1,1)"><path fill="#C0C0C0" stroke="none" d="M 983 296 C 983 286.6111584 1005.6096176 279 1033.5 279 C 1061.3903824 279 1084 286.6111584 1084 296 C 1084 305.3888416 1061.3903824 313 1033.5 313 C 1005.6096176 313 983 305.3888416 983 296 Z" opacity="0.2"/></g><g transform="translate(10,-6) scale(1,1)"><path fill="#ffff00" stroke="none" d="M 976 289 C 976 279.6111584 998.6096176 272 1026.5 272 C 1054.3903824 272 1077 279.6111584 1077 289 C 1077 298.3888416 1054.3903824 306 1026.5 306 C 998.6096176 306 976 298.3888416 976 289 Z"/></g><g transform="translate(10,-6) scale(1,1)"><path fill="none" stroke="#000000" d="M 976 289 C 976 279.6111584 998.6096176 272 1026.5 272 C 1054.3903824 272 1077 279.6111584 1077 289 C 1077 298.3888416 1054.3903824 306 1026.5 306 C 998.6096176 306 976 298.3888416 976 289 Z" stroke-miterlimit="10"/></g><g transform="translate(10,-6) scale(1,1)"><g><path fill="none" stroke="none"/><text fill="#000000" stroke="none" font-family="Arial" font-size="13px" font-style="normal" font-weight="bold" text-decoration="none" x="1008.075927734375" y="296">Profile</text></g></g><g transform="translate(10,-6) scale(1,1)"><path fill="none" stroke="#000000" d="M 1239 209 L 1074 271" stroke-miterlimit="10"/></g><g transform="translate(10,-6) scale(1,1)"><path fill="#C0C0C0" stroke="none" d="M 911 431 C 911 408.908608 981.9628592 391 1069.5 391 C 1157.0371408 391 1228 408.908608 1228 431 C 1228 453.091392 1157.0371408 471 1069.5 471 C 981.9628592 471 911 453.091392 911 431 Z" opacity="0.2"/></g><g transform="translate(10,-6) scale(1,1)"><path fill="#ffff00" stroke="none" d="M 904 424 C 904 401.908608 974.9628592 384 1062.5 384 C 1150.0371408 384 1221 401.908608 1221 424 C 1221 446.091392 1150.0371408 464 1062.5 464 C 974.9628592 464 904 446.091392 904 424 Z"/></g><g transform="translate(10,-6) scale(1,1)"><path fill="none" stroke="#000000" d="M 904 424 C 904 401.908608 974.9628592 384 1062.5 384 C 1150.0371408 384 1221 401.908608 1221 424 C 1221 446.091392 1150.0371408 464 1062.5 464 C 974.9628592 464 904 446.091392 904 424 Z" stroke-miterlimit="10"/></g><g transform="translate(10,-6) scale(1,1)"><g><path fill="none" stroke="none"/><text fill="#000000" stroke="none" font-family="Arial" font-size="13px" font-style="normal" font-weight="bold" text-decoration="none" x="962.413330078125" y="431">Register For a new Blood donation</text></g></g><g transform="translate(10,-6) scale(1,1)"><path fill="#C0C0C0" stroke="none" d="M 199 560 C 199 550.6111584 228.7730608 543 265.5 543 C 302.2269392 543 332 550.6111584 332 560 C 332 569.3888416 302.2269392 577 265.5 577 C 228.7730608 577 199 569.3888416 199 560 Z" opacity="0.2"/></g><g transform="translate(10,-6) scale(1,1)"><path fill="#fa0303" stroke="none" d="M 192 553 C 192 543.6111584 221.7730608 536 258.5 536 C 295.2269392 536 325 543.6111584 325 553 C 325 562.3888416 295.2269392 570 258.5 570 C 221.7730608 570 192 562.3888416 192 553 Z"/></g><g transform="translate(10,-6) scale(1,1)"><path fill="none" stroke="#000000" d="M 192 553 C 192 543.6111584 221.7730608 536 258.5 536 C 295.2269392 536 325 543.6111584 325 553 C 325 562.3888416 295.2269392 570 258.5 570 C 221.7730608 570 192 562.3888416 192 553 Z" stroke-miterlimit="10"/></g><g transform="translate(10,-6) scale(1,1)"><g><path fill="none" stroke="none"/><text fill="#000000" stroke="none" font-family="Arial" font-size="13px" font-style="normal" font-weight="bold" text-decoration="none" x="219.845947265625" y="560">Fulfill request</text></g></g><g transform="translate(10,-6) scale(1,1)"><path fill="#C0C0C0" stroke="none" d="M 391 832 C 391 822.6111584 433.9806592 815 487 815 C 540.0193408 815 583 822.6111584 583 832 C 583 841.3888416 540.0193408 849 487 849 C 433.9806592 849 391 841.3888416 391 832 Z" opacity="0.2"/></g><g transform="translate(10,-6) scale(1,1)"><path fill="#00d600" stroke="none" d="M 384 825 C 384 815.6111584 426.9806592 808 480 808 C 533.0193408 808 576 815.6111584 576 825 C 576 834.3888416 533.0193408 842 480 842 C 426.9806592 842 384 834.3888416 384 825 Z"/></g><g transform="translate(10,-6) scale(1,1)"><path fill="none" stroke="#000000" d="M 384 825 C 384 815.6111584 426.9806592 808 480 808 C 533.0193408 808 576 815.6111584 576 825 C 576 834.3888416 533.0193408 842 480 842 C 426.9806592 842 384 834.3888416 384 825 Z" stroke-miterlimit="10"/></g><g transform="translate(10,-6) scale(1,1)"><g><path fill="none" stroke="none"/><text fill="#000000" stroke="none" font-family="Arial" font-size="13px" font-style="normal" font-weight="bold" text-decoration="none" x="418.938720703125" y="832">Make a new Request</text></g></g><g transform="translate(10,-6) scale(1,1)"><path fill="#C0C0C0" stroke="none" d="M 303 152 C 303 142.6111584 330.7583424 135 365 135 C 399.2416576 135 427 142.6111584 427 152 C 427 161.3888416 399.2416576 169 365 169 C 330.7583424 169 303 161.3888416 303 152 Z" opacity="0.2"/></g><g transform="translate(10,-6) scale(1,1)"><path fill="#fa0303" stroke="none" d="M 296 145 C 296 135.6111584 323.7583424 128 358 128 C 392.2416576 128 420 135.6111584 420 145 C 420 154.3888416 392.2416576 162 358 162 C 323.7583424 162 296 154.3888416 296 145 Z"/></g><g transform="translate(10,-6) scale(1,1)"><path fill="none" stroke="#000000" d="M 296 145 C 296 135.6111584 323.7583424 128 358 128 C 392.2416576 128 420 135.6111584 420 145 C 420 154.3888416 392.2416576 162 358 162 C 323.7583424 162 296 154.3888416 296 145 Z" stroke-miterlimit="10"/></g><g transform="translate(10,-6) scale(1,1)"><g><path fill="none" stroke="none"/><text fill="#000000" stroke="none" font-family="Arial" font-size="13px" font-style="normal" font-weight="bold" text-decoration="none" x="321.86279296875" y="152">Authenticate</text></g></g><g transform="translate(10,-6) scale(1,1)"><path fill="none" stroke="#000000" d="M 373 215 L 362 163" stroke-miterlimit="10" stroke-dasharray="3"/></g><g transform="translate(10,-6) scale(1,1)"><path fill="none" stroke="#000000" d="M 368.2216333166483 172.0714540660895 L 362 163 L 359.984872422904 173.81384579361233" stroke-miterlimit="10"/></g><g transform="translate(10,-6) scale(1,1)"><g><path fill="none" stroke="none"/><text fill="#000000" stroke="none" font-family="Arial" font-size="13px" font-style="normal" font-weight="normal" text-decoration="none" x="309.5" y="200.5">«include»</text></g></g><g transform="translate(10,-6) scale(1,1)"><path fill="#C0C0C0" stroke="none" d="M 1278 408 C 1278 398.6111584 1305.7583424 391 1340 391 C 1374.2416576 391 1402 398.6111584 1402 408 C 1402 417.3888416 1374.2416576 425 1340 425 C 1305.7583424 425 1278 417.3888416 1278 408 Z" opacity="0.2"/></g><g transform="translate(10,-6) scale(1,1)"><path fill="#ffff00" stroke="none" d="M 1271 401 C 1271 391.6111584 1298.7583424 384 1333 384 C 1367.2416576 384 1395 391.6111584 1395 401 C 1395 410.3888416 1367.2416576 418 1333 418 C 1298.7583424 418 1271 410.3888416 1271 401 Z"/></g><g transform="translate(10,-6) scale(1,1)"><path fill="none" stroke="#000000" d="M 1271 401 C 1271 391.6111584 1298.7583424 384 1333 384 C 1367.2416576 384 1395 391.6111584 1395 401 C 1395 410.3888416 1367.2416576 418 1333 418 C 1298.7583424 418 1271 410.3888416 1271 401 Z" stroke-miterlimit="10"/></g><g transform="translate(10,-6) scale(1,1)"><g><path fill="none" stroke="none"/><text fill="#000000" stroke="none" font-family="Arial" font-size="13px" font-style="normal" font-weight="bold" text-decoration="none" x="1296.86279296875" y="408">Authenticate</text></g></g><g transform="translate(10,-6) scale(1,1)"><path fill="#C0C0C0" stroke="none" d="M 167 680 C 167 670.6111584 194.7583424 663 229 663 C 263.2416576 663 291 670.6111584 291 680 C 291 689.3888416 263.2416576 697 229 697 C 194.7583424 697 167 689.3888416 167 680 Z" opacity="0.2"/></g><g transform="translate(10,-6) scale(1,1)"><path fill="#00d600" stroke="none" d="M 160 673 C 160 663.6111584 187.7583424 656 222 656 C 256.2416576 656 284 663.6111584 284 673 C 284 682.3888416 256.2416576 690 222 690 C 187.7583424 690 160 682.3888416 160 673 Z"/></g><g transform="translate(10,-6) scale(1,1)"><path fill="none" stroke="#000000" d="M 160 673 C 160 663.6111584 187.7583424 656 222 656 C 256.2416576 656 284 663.6111584 284 673 C 284 682.3888416 256.2416576 690 222 690 C 187.7583424 690 160 682.3888416 160 673 Z" stroke-miterlimit="10"/></g><g transform="translate(10,-6) scale(1,1)"><g><path fill="none" stroke="none"/><text fill="#000000" stroke="none" font-family="Arial" font-size="13px" font-style="normal" font-weight="bold" text-decoration="none" x="185.86279296875" y="680">Authenticate</text></g></g><g transform="translate(10,-6) scale(1,1)"><path fill="none" stroke="#000000" d="M 421 705 L 285 683" stroke-miterlimit="10" stroke-dasharray="3"/></g><g transform="translate(10,-6) scale(1,1)"><path fill="none" stroke="#000000" d="M 295.704474327304 680.4673671059371 L 285 683 L 294.36004827952195 688.7783644922259" stroke-miterlimit="10"/></g><g transform="translate(10,-6) scale(1,1)"><g><path fill="none" stroke="none"/><text fill="#000000" stroke="none" font-family="Arial" font-size="13px" font-style="normal" font-weight="normal" text-decoration="none" x="320.5" y="729.5">«include»</text></g></g><g transform="translate(10,-6) scale(1,1)"><path fill="#C0C0C0" stroke="none" d="M 167 392 C 167 382.6111584 205.5035072 375 253 375 C 300.4964928 375 339 382.6111584 339 392 C 339 401.3888416 300.4964928 409 253 409 C 205.5035072 409 167 401.3888416 167 392 Z" opacity="0.2"/></g><g transform="translate(10,-6) scale(1,1)"><path fill="#fa0303" stroke="none" d="M 160 385 C 160 375.6111584 198.5035072 368 246 368 C 293.4964928 368 332 375.6111584 332 385 C 332 394.3888416 293.4964928 402 246 402 C 198.5035072 402 160 394.3888416 160 385 Z"/></g><g transform="translate(10,-6) scale(1,1)"><path fill="none" stroke="#000000" d="M 160 385 C 160 375.6111584 198.5035072 368 246 368 C 293.4964928 368 332 375.6111584 332 385 C 332 394.3888416 293.4964928 402 246 402 C 198.5035072 402 160 394.3888416 160 385 Z" stroke-miterlimit="10"/></g><g transform="translate(10,-6) scale(1,1)"><g><path fill="none" stroke="none"/><text fill="#000000" stroke="none" font-family="Arial" font-size="13px" font-style="normal" font-weight="bold" text-decoration="none" x="193.9619140625" y="392">Accept a donation</text></g></g><g transform="translate(10,-6) scale(1,1)"><path fill="#C0C0C0" stroke="none" d="M 7 304 C 7 294.6111584 49.3090864 287 101.5 287 C 153.6909136 287 196 294.6111584 196 304 C 196 313.3888416 153.6909136 321 101.5 321 C 49.3090864 321 7 313.3888416 7 304 Z" opacity="0.2"/></g><g transform="translate(10,-6) scale(1,1)"><path fill="#fa0303" stroke="none" d="M 0 297 C 0 287.6111584 42.3090864 280 94.5 280 C 146.6909136 280 189 287.6111584 189 297 C 189 306.3888416 146.6909136 314 94.5 314 C 42.3090864 314 0 306.3888416 0 297 Z"/></g><g transform="translate(10,-6) scale(1,1)"><path fill="none" stroke="#000000" d="M 0 297 C 0 287.6111584 42.3090864 280 94.5 280 C 146.6909136 280 189 287.6111584 189 297 C 189 306.3888416 146.6909136 314 94.5 314 C 42.3090864 314 0 306.3888416 0 297 Z" stroke-miterlimit="10"/></g><g transform="translate(10,-6) scale(1,1)"><g><path fill="none" stroke="none"/><text fill="#000000" stroke="none" font-family="Arial" font-size="13px" font-style="normal" font-weight="bold" text-decoration="none" x="37.780517578125" y="304">Fill in donation form</text></g></g><g transform="translate(10,-6) scale(1,1)"><path fill="none" stroke="#000000" d="M 473 731 L 479 807" stroke-miterlimit="10" stroke-dasharray="3"/></g><g transform="translate(10,-6) scale(1,1)"><path fill="none" stroke="#000000" d="M 474.00371177249326 797.2001477588855 L 479 807 L 482.39663268788576 796.5375487392492" stroke-miterlimit="10"/></g><g transform="translate(10,-6) scale(1,1)"><g><path fill="none" stroke="none"/><text fill="#000000" stroke="none" font-family="Arial" font-size="13px" font-style="normal" font-weight="normal" text-decoration="none" x="478.5" y="772.5">«extend»</text></g></g><g transform="translate(10,-6) scale(1,1)"><path fill="none" stroke="#000000" d="M 615 713 L 524 713" stroke-miterlimit="10" stroke-dasharray="3"/></g><g transform="translate(10,-6) scale(1,1)"><path fill="none" stroke="#000000" d="M 534.1626748576241 708.790482243984 L 524 713 L 534.1626748576241 717.209517756016" stroke-miterlimit="10"/></g><g transform="translate(10,-6) scale(1,1)"><g><path fill="none" stroke="none"/><text fill="#000000" stroke="none" font-family="Arial" font-size="13px" font-style="normal" font-weight="normal" text-decoration="none" x="541.5" y="749.5">«extend»</text></g></g><g transform="translate(10,-6) scale(1,1)"><path fill="none" stroke="#000000" d="M 954 201 L 1011 271" stroke-miterlimit="10" stroke-dasharray="3"/></g><g transform="translate(10,-6) scale(1,1)"><path fill="none" stroke="#000000" d="M 1001.3188083557562 265.7774978844022 L 1011 271 L 1007.847230399089 260.46149707768836" stroke-miterlimit="10"/></g><g transform="translate(10,-6) scale(1,1)"><g><path fill="none" stroke="none"/><text fill="#000000" stroke="none" font-family="Arial" font-size="13px" font-style="normal" font-weight="normal" text-decoration="none" x="978.5" y="222.5">«extend»</text></g></g><g transform="translate(10,-6) scale(1,1)"><path fill="none" stroke="#000000" d="M 527 217 L 446 241" stroke-miterlimit="10" stroke-dasharray="3"/></g><g transform="translate(10,-6) scale(1,1)"><path fill="none" stroke="#000000" d="M 454.5480786054463 234.07682499462047 L 446 241 L 456.9398283416718 242.1489803543816" stroke-miterlimit="10"/></g><g transform="translate(10,-6) scale(1,1)"><g><path fill="none" stroke="none"/><text fill="#000000" stroke="none" font-family="Arial" font-size="13px" font-style="normal" font-weight="normal" text-decoration="none" x="476.5" y="210.5">«extend»</text></g></g><g transform="translate(10,-6) scale(1,1)"><path fill="none" stroke="#000000" d="M 633 96 L 622 159" stroke-miterlimit="10" stroke-dasharray="3"/></g><g transform="translate(10,-6) scale(1,1)"><path fill="none" stroke="#000000" d="M 619.6012081285579 148.2647404522525 L 622 159 L 627.894772825058 149.71282317703825" stroke-miterlimit="10"/></g><g transform="translate(10,-6) scale(1,1)"><g><path fill="none" stroke="none"/><text fill="#000000" stroke="none" font-family="Arial" font-size="13px" font-style="normal" font-weight="normal" text-decoration="none" x="629.5" y="137.5">«extend»</text></g></g><g transform="translate(10,-6) scale(1,1)"><path fill="none" stroke="#000000" d="M 266 367 L 333 305" stroke-miterlimit="10" stroke-dasharray="3"/></g><g transform="translate(10,-6) scale(1,1)"><path fill="none" stroke="#000000" d="M 328.40003411652685 314.9920125035392 L 333 305 L 322.68191313161606 308.8127527295227" stroke-miterlimit="10"/></g><g transform="translate(10,-6) scale(1,1)"><g><path fill="none" stroke="none"/><text fill="#000000" stroke="none" font-family="Arial" font-size="13px" font-style="normal" font-weight="normal" text-decoration="none" x="251.5" y="319.5">«extend»</text></g></g><g transform="translate(10,-6) scale(1,1)"><path fill="none" stroke="#000000" d="M 574 511 L 416 305" stroke-miterlimit="10" stroke-dasharray="3"/></g><g transform="translate(10,-6) scale(1,1)"><path fill="none" stroke="#000000" d="M 425.5251134774484 310.50201901502817 L 416 305 L 418.8447573757314 315.6257872872189" stroke-miterlimit="10"/></g><g transform="translate(10,-6) scale(1,1)"><g><path fill="none" stroke="none"/><text fill="#000000" stroke="none" font-family="Arial" font-size="13px" font-style="normal" font-weight="normal" text-decoration="none" x="444.5" y="432.5">«extend»</text></g></g><g transform="translate(10,-6) scale(1,1)"><path fill="none" stroke="#000000" d="M 125 315 L 215 367" stroke-miterlimit="10" stroke-dasharray="3"/></g><g transform="translate(10,-6) scale(1,1)"><path fill="none" stroke="#000000" d="M 204.09456735885243 365.5607158343839 L 215 367 L 208.306422221233 358.2709670341099" stroke-miterlimit="10"/></g><g transform="translate(10,-6) scale(1,1)"><g><path fill="none" stroke="none"/><text fill="#000000" stroke="none" font-family="Arial" font-size="13px" font-style="normal" font-weight="normal" text-decoration="none" x="181.5" y="332.5">«extend»</text></g></g><g transform="translate(10,-6) scale(1,1)"><path fill="none" stroke="#000000" d="M 322 439 L 271 403" stroke-miterlimit="10" stroke-dasharray="3"/></g><g transform="translate(10,-6) scale(1,1)"><path fill="none" stroke="#000000" d="M 281.7301369233753 405.4216031065427 L 271 403 L 276.8750206036001 412.2996845595576" stroke-miterlimit="10"/></g><g transform="translate(10,-6) scale(1,1)"><g><path fill="none" stroke="none"/><text fill="#000000" stroke="none" font-family="Arial" font-size="13px" font-style="normal" font-weight="normal" text-decoration="none" x="251.5" y="451.5">«extend»</text></g></g><g transform="translate(10,-6) scale(1,1)"><path fill="none" stroke="#000000" d="M 1075 307 L 1284 383" stroke-miterlimit="10" stroke-dasharray="3"/></g><g transform="translate(10,-6) scale(1,1)"><path fill="none" stroke="#000000" d="M 1273.0106115116948 383.4830534681629 L 1284 383 L 1275.8877584958122 375.57089926183966" stroke-miterlimit="10"/></g><g transform="translate(10,-6) scale(1,1)"><g><path fill="none" stroke="none"/><text fill="#000000" stroke="none" font-family="Arial" font-size="13px" font-style="normal" font-weight="normal" text-decoration="none" x="1161.5" y="322.5">«include»</text></g></g><g transform="translate(10,-6) scale(1,1)"><path fill="none" stroke="#000000" d="M 1051 383 L 1031 307" stroke-miterlimit="10" stroke-dasharray="3"/></g><g transform="translate(10,-6) scale(1,1)"><path fill="none" stroke="#000000" d="M 1037.657250090021 315.75677002318287 L 1031 307 L 1029.515415218025 317.8993581473924" stroke-miterlimit="10"/></g><g transform="translate(10,-6) scale(1,1)"><g><path fill="none" stroke="none"/><text fill="#000000" stroke="none" font-family="Arial" font-size="13px" font-style="normal" font-weight="normal" text-decoration="none" x="984.5" y="358.5">«extend»</text></g></g><g transform="translate(10,-6) scale(1,1)"><path fill="#C0C0C0" stroke="none" d="M 551 304 C 551 294.6111584 598.9055264 287 658 287 C 717.0944736 287 765 294.6111584 765 304 C 765 313.3888416 717.0944736 321 658 321 C 598.9055264 321 551 313.3888416 551 304 Z" opacity="0.2"/></g><g transform="translate(10,-6) scale(1,1)"><path fill="#fa0303" stroke="none" d="M 544 297 C 544 287.6111584 591.9055264 280 651 280 C 710.0944736 280 758 287.6111584 758 297 C 758 306.3888416 710.0944736 314 651 314 C 591.9055264 314 544 306.3888416 544 297 Z"/></g><g transform="translate(10,-6) scale(1,1)"><path fill="none" stroke="#000000" d="M 544 297 C 544 287.6111584 591.9055264 280 651 280 C 710.0944736 280 758 287.6111584 758 297 C 758 306.3888416 710.0944736 314 651 314 C 591.9055264 314 544 306.3888416 544 297 Z" stroke-miterlimit="10"/></g><g transform="translate(10,-6) scale(1,1)"><g><path fill="none" stroke="none"/><text fill="#000000" stroke="none" font-family="Arial" font-size="13px" font-style="normal" font-weight="bold" text-decoration="none" x="585.6064453125" y="304">View All donors details</text></g></g><g transform="translate(10,-6) scale(1,1)"><path fill="none" stroke="#000000" d="M 543 282 L 446 269" stroke-miterlimit="10" stroke-dasharray="3"/></g><g transform="translate(10,-6) scale(1,1)"><path fill="none" stroke="#000000" d="M 456.631780469963 266.1777236069952 L 446 269 L 455.513454842274 274.52215329052115" stroke-miterlimit="10"/></g><g transform="translate(10,-6) scale(1,1)"><g><path fill="none" stroke="none"/><text fill="#000000" stroke="none" font-family="Arial" font-size="13px" font-style="normal" font-weight="normal" text-decoration="none" x="463.5" y="310.5">«extend»</text></g></g><g transform="translate(10,-6) scale(1,1)"><path fill="none" stroke="#000000" d="M 734 367 L 672 315" stroke-miterlimit="10" stroke-dasharray="3"/></g><g transform="translate(10,-6) scale(1,1)"><path fill="none" stroke="#000000" d="M 682.4916432584723 318.30536257269193 L 672 315 L 677.0814678044252 324.75595638328656" stroke-miterlimit="10"/></g><g transform="translate(10,-6) scale(1,1)"><g><path fill="none" stroke="none"/><text fill="#000000" stroke="none" font-family="Arial" font-size="13px" font-style="normal" font-weight="normal" text-decoration="none" x="656.5" y="369.5">«extend»</text></g></g><g transform="translate(10,-6) scale(1,1)"><path fill="none" stroke="#000000" d="M 325 552 L 424 552" stroke-miterlimit="10" stroke-dasharray="3"/></g><g transform="translate(10,-6) scale(1,1)"><path fill="none" stroke="#000000" d="M 413.83732514237585 556.209517756016 L 424 552 L 413.83732514237585 547.790482243984" stroke-miterlimit="10"/></g><g transform="translate(10,-6) scale(1,1)"><g><path fill="none" stroke="none"/><text fill="#000000" stroke="none" font-family="Arial" font-size="13px" font-style="normal" font-weight="normal" text-decoration="none" x="347.5" y="528.5">«extend»</text></g></g><g transform="translate(10,-6) scale(1,1)"><path fill="none" stroke="#000000" d="M 724 695 L 652 609" stroke-miterlimit="10" stroke-dasharray="3"/></g><g transform="translate(10,-6) scale(1,1)"><path fill="none" stroke="#000000" d="M 661.7514735578127 614.0900651716142 L 652 609 L 655.2961134797607 619.4945526788206" stroke-miterlimit="10"/></g><g transform="translate(10,-6) scale(1,1)"><g><path fill="none" stroke="none"/><text fill="#000000" stroke="none" font-family="Arial" font-size="13px" font-style="normal" font-weight="normal" text-decoration="none" x="637.5" y="677.5">«extend»</text></g></g><g transform="translate(10,-6) scale(1,1)"><path fill="none" stroke="#000000" d="M 927 136 L 927 116 L 1116 116 L 1116 55 L 728 55" stroke-miterlimit="10" stroke-dasharray="3"/></g><g transform="translate(10,-6) scale(1,1)"><path fill="none" stroke="#000000" d="M 738.1626748576241 50.790482243984016 L 728 55 L 738.1626748576241 59.209517756015984" stroke-miterlimit="10"/></g><g transform="translate(10,-6) scale(1,1)"><g><path fill="none" stroke="none"/><text fill="#000000" stroke="none" font-family="Arial" font-size="13px" font-style="normal" font-weight="normal" text-decoration="none" x="1059.5" y="121.5">«extend»</text></g></g></g></svg>